<svg xmlns="http://www.w3.org/2000/svg" viewBox="0 0 99.71 148.26"><defs><style>.cls-1{fill:none;stroke:#000;stroke-miterlimit:10;stroke-width:2px;}.cls-2{fill:#fff;}</style></defs><title>Asset 1</title><g id="Layer_2" data-name="Layer 2"><g id="Layer_1-2" data-name="Layer 1"><polyline class="cls-1" points="61.74 92.23 97.86 147.26 1.85 147.26 97.86 1 1.85 1 39.49 58.33"/><path class="cls-1" d="M21.13,29.92c3.59,0,3.59,2,7.18,2s3.59-2,7.18-2,3.59,2,7.18,2,3.59-2,7.18-2,3.58,2,7.17,2,3.59-2,7.18-2,3.6,2,7.19,2,3.6-2,7.19-2"/><path class="cls-2" d="M7.41,137.8c8.48,0,8.48,2,17,2s8.49-2,17-2,8.49,2,17,2,8.49-2,17-2,8.49,2,17,2"/><path class="cls-1" d="M7.41,137.8c8.48,0,8.48,2,17,2s8.49-2,17-2,8.49,2,17,2,8.49-2,17-2,8.49,2,17,2"/></g></g></svg>